<?xml version="1.0" encoding="UTF-8" standalone="no"?>
<svg
   xmlns:dc="http://purl.org/dc/elements/1.1/"
   xmlns:cc="http://creativecommons.org/ns#"
   xmlns:rdf="http://www.w3.org/1999/02/22-rdf-syntax-ns#"
   xmlns:svg="http://www.w3.org/2000/svg"
   xmlns="http://www.w3.org/2000/svg"
   xmlns:sodipodi="http://sodipodi.sourceforge.net/DTD/sodipodi-0.dtd"
   xmlns:inkscape="http://www.inkscape.org/namespaces/inkscape"
   id="63f7da82-4632-4fc5-ad50-1adc48801529"
   data-name="objects"
   viewBox="0 0 600.77 701"
   version="1.1"
   sodipodi:docname="axe.svg"
   width="600.77002"
   height="701"
   inkscape:version="0.92.3 (2405546, 2018-03-11)">
  <metadata
     id="metadata282">
    <rdf:RDF>
      <cc:Work
         rdf:about="">
        <dc:format>image/svg+xml</dc:format>
        <dc:type
           rdf:resource="http://purl.org/dc/dcmitype/StillImage" />
        <dc:title>Task1_axes</dc:title>
      </cc:Work>
    </rdf:RDF>
  </metadata>
  <sodipodi:namedview
     pagecolor="#ffffff"
     bordercolor="#666666"
     borderopacity="1"
     objecttolerance="10"
     gridtolerance="10"
     guidetolerance="10"
     inkscape:pageopacity="0"
     inkscape:pageshadow="2"
     inkscape:window-width="1366"
     inkscape:window-height="705"
     id="namedview280"
     showgrid="false"
     inkscape:zoom="0.47611184"
     inkscape:cx="85.815623"
     inkscape:cy="320.66552"
     inkscape:window-x="-8"
     inkscape:window-y="-8"
     inkscape:window-maximized="1"
     inkscape:current-layer="63f7da82-4632-4fc5-ad50-1adc48801529" />
  <defs
     id="defs4">
    <style
       id="style2">.\32 24548b8-7d81-4cc0-b13a-140afd493e83,.\32 7e0e969-fe3b-49fc-bfc7-b47e2e3bc444,.\34 8f29732-362d-47fa-b0a0-d9cf4ef470e3,.\39 e02eb24-b015-4232-9633-2dd198bcf9a4{fill:#fff;}.\31 25c1834-4980-4801-b6a8-13b34d4522d5,.\34 8f29732-362d-47fa-b0a0-d9cf4ef470e3,.\39 e02eb24-b015-4232-9633-2dd198bcf9a4{stroke:#b2b2ff;}.\32 027c739-e152-42b9-b37e-338924210b82,.\34 8f29732-362d-47fa-b0a0-d9cf4ef470e3,.d03545be-fad1-462f-a8fe-bbd2fa5cc94d{stroke-linecap:round;stroke-linejoin:round;}.\32 7e0e969-fe3b-49fc-bfc7-b47e2e3bc444,.\32 a96cb11-280f-4411-88c7-401d31b35c23,.\34 8f29732-362d-47fa-b0a0-d9cf4ef470e3,.\39 e02eb24-b015-4232-9633-2dd198bcf9a4{fill-rule:evenodd;}.\31 25c1834-4980-4801-b6a8-13b34d4522d5,.\39 e02eb24-b015-4232-9633-2dd198bcf9a4{stroke-miterlimit:10;}.\31 25c1834-4980-4801-b6a8-13b34d4522d5,.\32 027c739-e152-42b9-b37e-338924210b82,.d03545be-fad1-462f-a8fe-bbd2fa5cc94d{fill:none;}.\31 25c1834-4980-4801-b6a8-13b34d4522d5,.d03545be-fad1-462f-a8fe-bbd2fa5cc94d{stroke-width:0.5px;}.\32 a96cb11-280f-4411-88c7-401d31b35c23{fill:#b2b2ff;}.\32 027c739-e152-42b9-b37e-338924210b82{stroke:#fff;}.d03545be-fad1-462f-a8fe-bbd2fa5cc94d{stroke:#1d1d1b;}</style>
  </defs>
  <title
     id="title6">Task1_axes</title>
  <path
     style="fill:#ffffff;fill-rule:evenodd;stroke:#b2b2ff;stroke-linecap:round;stroke-linejoin:round;stroke-width:5;stroke-miterlimit:4;stroke-dasharray:none"
     inkscape:connector-curvature="0"
     id="path8"
     d="m 186.48141,576.0014 c 0,0 195.44863,-314.76357 207.61472,-372.21154 0,0 43.95014,-89.59073 41.38538,-162.543051 0,0 -4.30702,-9.910327 9.75021,-11.411285 14.05723,-1.500959 32.0903,-4.267186 55.98213,13.423599 0,0 6.6078,8.384736 -22.19319,64.731357 0,0 -6.31888,53.99672 -71.43766,167.04912 -65.11877,113.0524 -166.34153,329.20961 -166.10554,330.40158 0.23599,1.19198 -23.07681,-14.10299 -40.92528,-16.4766 -17.84847,-2.37361 -14.07077,-12.96318 -14.07077,-12.96318 z"
     class="48f29732-362d-47fa-b0a0-d9cf4ef470e3" />
  <path
     style="fill:#ffffff;fill-rule:evenodd;stroke:#b2b2ff;stroke-miterlimit:10;stroke-width:2;stroke-dasharray:none"
     inkscape:connector-curvature="0"
     id="path10"
     d="m 455.39006,77.739921 2.28983,8.741463 4.19966,1.031404 c 2.97014,-3.435581 1.71734,-6.225526 -0.53904,-8.304603 -1.11732,-1.028059 -3.26923,-0.862924 -5.95045,-1.468264 z"
     class="9e02eb24-b015-4232-9633-2dd198bcf9a4" />
  <path
     style="fill:#ffffff;fill-rule:evenodd;stroke:#b2b2ff;stroke-linecap:round;stroke-linejoin:round"
     inkscape:connector-curvature="0"
     id="path12"
     d="M 173.26734,580.54958"
     class="48f29732-362d-47fa-b0a0-d9cf4ef470e3" />
  <path
     style="fill:#ffffff;stroke-width:2;stroke-miterlimit:10;stroke-dasharray:none"
     inkscape:connector-curvature="0"
     id="path14"
     d="m 437.37889,117.18736 c 10.65191,1.15776 21.34153,2.24497 30.36202,1.70303"
     class="224548b8-7d81-4cc0-b13a-140afd493e83" />
  <path
     style="fill:none;stroke:#b2b2ff;stroke-width:2;stroke-miterlimit:10;stroke-dasharray:none"
     inkscape:connector-curvature="0"
     id="path16"
     d="m 437.37889,117.18736 c 10.65191,1.15776 21.34153,2.24497 30.36202,1.70303"
     class="125c1834-4980-4801-b6a8-13b34d4522d5" />
  <path
     style="fill:#ffffff;stroke-width:2;stroke-miterlimit:10;stroke-dasharray:none"
     inkscape:connector-curvature="0"
     id="path18"
     d="m 438.77021,113.07801 c 6.67425,-0.1405 15.34911,0.34608 22.02807,0.19676"
     class="224548b8-7d81-4cc0-b13a-140afd493e83" />
  <path
     style="fill:none;stroke:#b2b2ff;stroke-width:2;stroke-miterlimit:10;stroke-dasharray:none"
     inkscape:connector-curvature="0"
     id="path20"
     d="m 438.77021,113.07801 c 6.67425,-0.1405 15.34911,0.34608 22.02807,0.19676"
     class="125c1834-4980-4801-b6a8-13b34d4522d5" />
  <path
     style="fill:#ffffff;stroke-width:2;stroke-miterlimit:10;stroke-dasharray:none"
     inkscape:connector-curvature="0"
     id="path22"
     d="m 438.49712,107.33071 c 5.9877,1.90771 17.00409,2.00168 24.02868,0.82384"
     class="224548b8-7d81-4cc0-b13a-140afd493e83" />
  <path
     style="fill:none;stroke:#b2b2ff;stroke-width:2;stroke-miterlimit:10;stroke-dasharray:none"
     inkscape:connector-curvature="0"
     id="path24"
     d="m 438.49712,107.33071 c 5.9877,1.90771 17.00409,2.00168 24.02868,0.82384"
     class="125c1834-4980-4801-b6a8-13b34d4522d5" />
  <path
     style="fill:#ffffff;stroke-width:2;stroke-miterlimit:10;stroke-dasharray:none"
     inkscape:connector-curvature="0"
     id="path26"
     d="m 446.20353,104.11348 a 225.16,225.16 0 0 1 26.37021,0.43123"
     class="224548b8-7d81-4cc0-b13a-140afd493e83" />
  <path
     style="fill:none;stroke:#b2b2ff;stroke-width:2;stroke-miterlimit:10;stroke-dasharray:none"
     inkscape:connector-curvature="0"
     id="path28"
     d="m 446.20353,104.11348 a 225.15,225.15 45 0 1 26.37021,0.43123"
     class="125c1834-4980-4801-b6a8-13b34d4522d5" />
  <path
     style="fill:#ffffff;stroke-width:2;stroke-miterlimit:10;stroke-dasharray:none"
     inkscape:connector-curvature="0"
     id="path30"
     d="m 442.21172,102.84168 c 9.3614,-1.56163 20.38661,-1.46295 31.35419,-1.38373"
     class="224548b8-7d81-4cc0-b13a-140afd493e83" />
  <path
     style="fill:none;stroke:#b2b2ff;stroke-width:2;stroke-miterlimit:10;stroke-dasharray:none"
     inkscape:connector-curvature="0"
     id="path32"
     d="m 442.21172,102.84168 c 9.3614,-1.56163 20.38661,-1.46295 31.35419,-1.38373"
     class="125c1834-4980-4801-b6a8-13b34d4522d5" />
  <path
     style="fill:#ffffff;stroke-width:2;stroke-miterlimit:10;stroke-dasharray:none"
     inkscape:connector-curvature="0"
     id="path34"
     d="m 442.62988,95.03734 c 8.68368,0.491296 15.35382,0.337261 24.02868,0.823842"
     class="224548b8-7d81-4cc0-b13a-140afd493e83" />
  <path
     style="fill:none;stroke:#b2b2ff;stroke-width:2;stroke-miterlimit:10;stroke-dasharray:none"
     inkscape:connector-curvature="0"
     id="path36"
     d="m 442.62988,95.03734 c 8.68368,0.491296 15.35382,0.337261 24.02868,0.823842"
     class="125c1834-4980-4801-b6a8-13b34d4522d5" />
  <path
     style="fill:#ffffff;stroke-width:2;stroke-miterlimit:10;stroke-dasharray:none"
     inkscape:connector-curvature="0"
     id="path38"
     d="M 422.55303,227.00473 A 96.86,96.86 0 0 1 401.34774,211.20341"
     class="224548b8-7d81-4cc0-b13a-140afd493e83" />
  <path
     style="fill:none;stroke:#b2b2ff;stroke-width:2;stroke-miterlimit:10;stroke-dasharray:none"
     inkscape:connector-curvature="0"
     id="path40"
     d="M 422.55303,227.00473 A 96.86,96.86 0 0 1 401.34774,211.20341"
     class="125c1834-4980-4801-b6a8-13b34d4522d5" />
  <path
     style="fill:#ffffff;stroke-width:2;stroke-miterlimit:10;stroke-dasharray:none"
     inkscape:connector-curvature="0"
     id="path42"
     d="M 427.577,225.19981 A 220.86,220.86 45 0 1 406.00434,210.40404"
     class="224548b8-7d81-4cc0-b13a-140afd493e83" />
  <path
     style="fill:none;stroke:#b2b2ff;stroke-width:2;stroke-miterlimit:10;stroke-dasharray:none"
     inkscape:connector-curvature="0"
     id="path44"
     d="M 427.577,225.19981 A 220.85,220.85 0 0 1 406.00434,210.40404"
     class="125c1834-4980-4801-b6a8-13b34d4522d5" />
  <path
     style="fill:#ffffff;stroke-width:2;stroke-miterlimit:10;stroke-dasharray:none"
     inkscape:connector-curvature="0"
     id="path46"
     d="m 427.29979,219.43897 c -9.29769,-5.2189 -18.59066,-10.44663 -25.54272,-16.04461"
     class="224548b8-7d81-4cc0-b13a-140afd493e83" />
  <path
     style="fill:none;stroke:#b2b2ff;stroke-width:2;stroke-miterlimit:10;stroke-dasharray:none"
     inkscape:connector-curvature="0"
     id="path48"
     d="m 427.29979,219.43897 c -9.29769,-5.2189 -18.59066,-10.44663 -25.54272,-16.04461"
     class="125c1834-4980-4801-b6a8-13b34d4522d5" />
  <path
     style="fill:#ffffff;stroke-width:2;stroke-miterlimit:10;stroke-dasharray:none"
     inkscape:connector-curvature="0"
     id="path50"
     d="m 428.65812,215.39136 c -5.29646,-3.96473 -12.60296,-8.53892 -17.89531,-12.49012"
     class="224548b8-7d81-4cc0-b13a-140afd493e83" />
  <path
     style="fill:none;stroke:#b2b2ff;stroke-width:2;stroke-miterlimit:10;stroke-dasharray:none"
     inkscape:connector-curvature="0"
     id="path52"
     d="m 428.65812,215.39136 c -5.29646,-3.96473 -12.60296,-8.53892 -17.89531,-12.49012"
     class="125c1834-4980-4801-b6a8-13b34d4522d5" />
  <path
     style="fill:#ffffff;stroke-width:2;stroke-miterlimit:10;stroke-dasharray:none"
     inkscape:connector-curvature="0"
     id="path54"
     d="m 432.40983,210.85413 c -5.99243,-1.89889 -14.92685,-8.13688 -19.90475,-13.12192"
     class="224548b8-7d81-4cc0-b13a-140afd493e83" />
  <path
     style="fill:none;stroke:#b2b2ff;stroke-width:2;stroke-miterlimit:10;stroke-dasharray:none"
     inkscape:connector-curvature="0"
     id="path56"
     d="m 432.40983,210.85413 c -5.99243,-1.89889 -14.92685,-8.13688 -19.90475,-13.12192"
     class="125c1834-4980-4801-b6a8-13b34d4522d5" />
  <path
     style="fill:#ffffff;stroke-width:2;stroke-miterlimit:10;stroke-dasharray:none"
     inkscape:connector-curvature="0"
     id="path58"
     d="M 428.13139,203.83912 A 217.44,217.44 0 0 0 406.55873,189.04335"
     class="224548b8-7d81-4cc0-b13a-140afd493e83" />
  <path
     style="fill:none;stroke:#b2b2ff;stroke-width:2;stroke-miterlimit:10;stroke-dasharray:none"
     inkscape:connector-curvature="0"
     id="path60"
     d="M 428.13139,203.83912 A 217.43,217.43 0 0 0 406.55873,189.04335"
     class="125c1834-4980-4801-b6a8-13b34d4522d5" />
  <path
     style="fill:#ffffff;stroke-width:2;stroke-miterlimit:10;stroke-dasharray:none"
     inkscape:connector-curvature="0"
     id="path62"
     d="m 432.11909,205.0974 c -6.64581,-6.65889 -15.56792,-12.85628 -24.51055,-19.12134"
     class="224548b8-7d81-4cc0-b13a-140afd493e83" />
  <path
     style="fill:none;stroke:#b2b2ff;stroke-width:2;stroke-miterlimit:10;stroke-dasharray:none"
     inkscape:connector-curvature="0"
     id="path64"
     d="m 432.11909,205.0974 c -6.64581,-6.65889 -15.56792,-12.85628 -24.51055,-19.12134"
     class="125c1834-4980-4801-b6a8-13b34d4522d5" />
  <path
     style="fill:#ffffff;stroke-width:2;stroke-miterlimit:10;stroke-dasharray:none"
     inkscape:connector-curvature="0"
     id="path66"
     d="m 436.53787,198.56958 c -7.29707,-4.59182 -12.60295,-8.53892 -19.90003,-13.13074"
     class="224548b8-7d81-4cc0-b13a-140afd493e83" />
  <path
     style="fill:none;stroke:#b2b2ff;stroke-width:2;stroke-miterlimit:10;stroke-dasharray:none"
     inkscape:connector-curvature="0"
     id="path68"
     d="m 436.53787,198.56958 c -7.29707,-4.59182 -12.60295,-8.53892 -19.90003,-13.13074"
     class="125c1834-4980-4801-b6a8-13b34d4522d5" />
  <path
     style="fill:#ffffff;stroke-width:2;stroke-miterlimit:10;stroke-dasharray:none"
     inkscape:connector-curvature="0"
     id="path70"
     d="m 400.56221,220.0133 a 100.05,100.05 0 0 0 26.71995,-0.58375"
     class="224548b8-7d81-4cc0-b13a-140afd493e83" />
  <path
     style="fill:none;stroke:#b2b2ff;stroke-width:2;stroke-miterlimit:10;stroke-dasharray:none"
     inkscape:connector-curvature="0"
     id="path72"
     d="m 400.56221,220.0133 a 100.05,100.05 0 0 0 26.71995,-0.58375"
     class="125c1834-4980-4801-b6a8-13b34d4522d5" />
  <path
     style="fill:#ffffff;stroke-width:2;stroke-miterlimit:10;stroke-dasharray:none"
     inkscape:connector-curvature="0"
     id="path74"
     d="m 397.62431,215.68773 a 225.54,225.54 0 0 0 26.35547,0.48004"
     class="224548b8-7d81-4cc0-b13a-140afd493e83" />
  <path
     style="fill:none;stroke:#b2b2ff;stroke-width:2;stroke-miterlimit:10;stroke-dasharray:none"
     inkscape:connector-curvature="0"
     id="path76"
     d="m 397.62431,215.68773 a 225.53,225.53 45 0 0 26.35547,0.48004"
     class="125c1834-4980-4801-b6a8-13b34d4522d5" />
  <path
     style="fill:#ffffff;stroke-width:2;stroke-miterlimit:10;stroke-dasharray:none"
     inkscape:connector-curvature="0"
     id="path78"
     d="m 401.33892,211.1987 c 10.65191,1.15776 21.34153,2.24496 30.37084,1.70774"
     class="224548b8-7d81-4cc0-b13a-140afd493e83" />
  <path
     style="fill:none;stroke:#b2b2ff;stroke-width:2;stroke-miterlimit:10;stroke-dasharray:none"
     inkscape:connector-curvature="0"
     id="path80"
     d="m 401.33892,211.1987 c 10.65191,1.15776 21.34153,2.24496 30.37084,1.70774"
     class="125c1834-4980-4801-b6a8-13b34d4522d5" />
  <path
     style="fill:#ffffff;stroke-width:2;stroke-miterlimit:10;stroke-dasharray:none"
     inkscape:connector-curvature="0"
     id="path82"
     d="m 402.72553,207.09817 c 6.67896,-0.14932 15.34911,0.34608 22.03278,0.18794"
     class="224548b8-7d81-4cc0-b13a-140afd493e83" />
  <path
     style="fill:none;stroke:#b2b2ff;stroke-width:2;stroke-miterlimit:10;stroke-dasharray:none"
     inkscape:connector-curvature="0"
     id="path84"
     d="m 402.72553,207.09817 c 6.67896,-0.14932 15.34911,0.34608 22.03278,0.18794"
     class="125c1834-4980-4801-b6a8-13b34d4522d5" />
  <path
     style="fill:#ffffff;stroke-width:2;stroke-miterlimit:10;stroke-dasharray:none"
     inkscape:connector-curvature="0"
     id="path86"
     d="m 402.42947,201.37261 c 5.99242,1.89889 17.00881,1.99286 24.02868,0.82384"
     class="224548b8-7d81-4cc0-b13a-140afd493e83" />
  <path
     style="fill:none;stroke:#b2b2ff;stroke-width:2;stroke-miterlimit:10;stroke-dasharray:none"
     inkscape:connector-curvature="0"
     id="path88"
     d="m 402.42947,201.37261 c 5.99242,1.89889 17.00881,1.99286 24.02868,0.82384"
     class="125c1834-4980-4801-b6a8-13b34d4522d5" />
  <path
     style="fill:#ffffff;stroke-width:2;stroke-miterlimit:10;stroke-dasharray:none"
     inkscape:connector-curvature="0"
     id="path90"
     d="m 410.16355,198.12482 a 225.19,225.19 0 0 1 26.35547,0.48004"
     class="224548b8-7d81-4cc0-b13a-140afd493e83" />
  <path
     style="fill:none;stroke:#b2b2ff;stroke-width:2;stroke-miterlimit:10;stroke-dasharray:none"
     inkscape:connector-curvature="0"
     id="path92"
     d="m 410.16355,198.12482 a 225.18,225.18 0 0 1 26.35547,0.48004"
     class="125c1834-4980-4801-b6a8-13b34d4522d5" />
  <path
     style="fill:#ffffff;stroke-width:2;stroke-miterlimit:10;stroke-dasharray:none"
     inkscape:connector-curvature="0"
     id="path94"
     d="m 406.14529,196.83887 c 9.3614,-1.56163 20.38661,-1.46295 31.39829,-1.36016"
     class="224548b8-7d81-4cc0-b13a-140afd493e83" />
  <path
     style="fill:none;stroke:#b2b2ff;stroke-width:2;stroke-miterlimit:10;stroke-dasharray:none"
     inkscape:connector-curvature="0"
     id="path96"
     d="m 406.14529,196.83887 c 9.3614,-1.56163 20.38661,-1.46295 31.39829,-1.36016"
     class="125c1834-4980-4801-b6a8-13b34d4522d5" />
  <path
     style="fill:#ffffff;stroke-width:2;stroke-miterlimit:10;stroke-dasharray:none"
     inkscape:connector-curvature="0"
     id="path98"
     d="m 406.58991,189.04868 c 8.67486,0.48658 15.35382,0.33726 24.02868,0.82384"
     class="224548b8-7d81-4cc0-b13a-140afd493e83" />
  <path
     style="fill:none;stroke:#b2b2ff;stroke-width:2;stroke-miterlimit:10;stroke-dasharray:none"
     inkscape:connector-curvature="0"
     id="path100"
     d="m 406.58991,189.04868 c 8.67486,0.48658 15.35382,0.33726 24.02868,0.82384"
     class="125c1834-4980-4801-b6a8-13b34d4522d5" />
  <path
     style="fill:#ffffff;stroke-width:2;stroke-miterlimit:10;stroke-dasharray:none"
     inkscape:connector-curvature="0"
     id="path102"
     d="M 436.26539,192.79992 A 96.47,96.47 0 0 1 415.0601,176.9986"
     class="224548b8-7d81-4cc0-b13a-140afd493e83" />
  <path
     style="fill:none;stroke:#b2b2ff;stroke-width:2;stroke-miterlimit:10;stroke-dasharray:none"
     inkscape:connector-curvature="0"
     id="path104"
     d="M 436.26539,192.79992 A 96.47,96.47 0 0 1 415.0601,176.9986"
     class="125c1834-4980-4801-b6a8-13b34d4522d5" />
  <path
     style="fill:#ffffff;stroke-width:2;stroke-miterlimit:10;stroke-dasharray:none"
     inkscape:connector-curvature="0"
     id="path106"
     d="M 441.29407,190.98618 A 219.32,219.32 0 0 1 419.7167,176.19923"
     class="224548b8-7d81-4cc0-b13a-140afd493e83" />
  <path
     style="fill:none;stroke:#b2b2ff;stroke-width:2;stroke-miterlimit:10;stroke-dasharray:none"
     inkscape:connector-curvature="0"
     id="path108"
     d="M 441.29407,190.98618 A 219.32,219.32 0 0 1 419.7167,176.19923"
     class="125c1834-4980-4801-b6a8-13b34d4522d5" />
  <path
     style="fill:#ffffff;stroke-width:2;stroke-miterlimit:10;stroke-dasharray:none"
     inkscape:connector-curvature="0"
     id="path110"
     d="m 441.00744,185.24298 c -9.28416,-5.22301 -18.58185,-10.44191 -25.54272,-16.04461"
     class="224548b8-7d81-4cc0-b13a-140afd493e83" />
  <path
     style="fill:none;stroke:#b2b2ff;stroke-width:2;stroke-miterlimit:10;stroke-dasharray:none"
     inkscape:connector-curvature="0"
     id="path112"
     d="m 441.00744,185.24298 c -9.28416,-5.22301 -18.58185,-10.44191 -25.54272,-16.04461"
     class="125c1834-4980-4801-b6a8-13b34d4522d5" />
  <path
     style="fill:#ffffff;stroke-width:2;stroke-miterlimit:10;stroke-dasharray:none"
     inkscape:connector-curvature="0"
     id="path114"
     d="m 442.39405,181.14246 c -5.28764,-3.96003 -12.59414,-8.53421 -17.89531,-12.49013"
     class="224548b8-7d81-4cc0-b13a-140afd493e83" />
  <path
     style="fill:none;stroke:#b2b2ff;stroke-width:2;stroke-miterlimit:10;stroke-dasharray:none"
     inkscape:connector-curvature="0"
     id="path116"
     d="m 442.39405,181.14246 c -5.28764,-3.96003 -12.59414,-8.53421 -17.89531,-12.49013"
     class="125c1834-4980-4801-b6a8-13b34d4522d5" />
  <path
     style="fill:#ffffff;stroke-width:2;stroke-miterlimit:10;stroke-dasharray:none"
     inkscape:connector-curvature="0"
     id="path118"
     d="m 446.10865,176.65342 c -5.98771,-1.9077 -14.92684,-8.13688 -19.89592,-13.1172"
     class="224548b8-7d81-4cc0-b13a-140afd493e83" />
  <path
     style="fill:none;stroke:#b2b2ff;stroke-width:2;stroke-miterlimit:10;stroke-dasharray:none"
     inkscape:connector-curvature="0"
     id="path120"
     d="m 446.10865,176.65342 c -5.98771,-1.9077 -14.92684,-8.13688 -19.89592,-13.1172"
     class="125c1834-4980-4801-b6a8-13b34d4522d5" />
  <path
     style="fill:#ffffff;stroke-width:2;stroke-miterlimit:10;stroke-dasharray:none"
     inkscape:connector-curvature="0"
     id="path122"
     d="M 441.84847,169.62549 A 219.13,219.13 0 0 0 420.27581,154.82973"
     class="224548b8-7d81-4cc0-b13a-140afd493e83" />
  <path
     style="fill:none;stroke:#b2b2ff;stroke-width:2;stroke-miterlimit:10;stroke-dasharray:none"
     inkscape:connector-curvature="0"
     id="path124"
     d="M 441.84847,169.62549 A 219.13,219.13 0 0 0 420.27581,154.82973"
     class="125c1834-4980-4801-b6a8-13b34d4522d5" />
  <path
     style="fill:#ffffff;stroke-width:2;stroke-miterlimit:10;stroke-dasharray:none"
     inkscape:connector-curvature="0"
     id="path126"
     d="m 445.84027,170.8973 c -6.64581,-6.65889 -15.56792,-12.85628 -24.51056,-19.12134"
     class="224548b8-7d81-4cc0-b13a-140afd493e83" />
  <path
     style="fill:none;stroke:#b2b2ff;stroke-width:2;stroke-miterlimit:10;stroke-dasharray:none"
     inkscape:connector-curvature="0"
     id="path128"
     d="m 445.84027,170.8973 c -6.64581,-6.65889 -15.56792,-12.85628 -24.51056,-19.12134"
     class="125c1834-4980-4801-b6a8-13b34d4522d5" />
  <path
     style="fill:#ffffff;stroke-width:2;stroke-miterlimit:10;stroke-dasharray:none"
     inkscape:connector-curvature="0"
     id="path130"
     d="m 450.25495,164.35595 c -7.30179,-4.583 -12.59414,-8.53421 -19.89593,-13.11721"
     class="224548b8-7d81-4cc0-b13a-140afd493e83" />
  <path
     style="fill:none;stroke:#b2b2ff;stroke-width:2;stroke-miterlimit:10;stroke-dasharray:none"
     inkscape:connector-curvature="0"
     id="path132"
     d="m 450.25495,164.35595 c -7.30179,-4.583 -12.59414,-8.53421 -19.89593,-13.11721"
     class="125c1834-4980-4801-b6a8-13b34d4522d5" />
  <path
     style="fill:#ffffff;stroke-width:2;stroke-miterlimit:10;stroke-dasharray:none"
     inkscape:connector-curvature="0"
     id="path134"
     d="m 414.29631,185.83145 a 100.21,100.21 0 0 0 26.71584,-0.59729"
     class="224548b8-7d81-4cc0-b13a-140afd493e83" />
  <path
     style="fill:none;stroke:#b2b2ff;stroke-width:2;stroke-miterlimit:10;stroke-dasharray:none"
     inkscape:connector-curvature="0"
     id="path136"
     d="m 414.29631,185.83145 a 100.21,100.21 0 0 0 26.71584,-0.59729"
     class="125c1834-4980-4801-b6a8-13b34d4522d5" />
  <path
     style="fill:#ffffff;stroke-width:2;stroke-miterlimit:10;stroke-dasharray:none"
     inkscape:connector-curvature="0"
     id="path138"
     d="m 411.33667,181.48292 a 223.55,223.55 45 0 0 26.35547,0.48004"
     class="224548b8-7d81-4cc0-b13a-140afd493e83" />
  <path
     style="fill:none;stroke:#b2b2ff;stroke-width:2;stroke-miterlimit:10;stroke-dasharray:none"
     inkscape:connector-curvature="0"
     id="path140"
     d="m 411.33667,181.48292 a 223.56,223.56 0 0 0 26.35547,0.48004"
     class="125c1834-4980-4801-b6a8-13b34d4522d5" />
  <path
     style="fill:#ffffff;stroke-width:2;stroke-miterlimit:10;stroke-dasharray:none"
     inkscape:connector-curvature="0"
     id="path142"
     d="m 415.0601,176.9986 c 10.65191,1.15776 21.34153,2.24497 30.37083,1.70775"
     class="224548b8-7d81-4cc0-b13a-140afd493e83" />
  <path
     style="fill:none;stroke:#b2b2ff;stroke-width:2;stroke-miterlimit:10;stroke-dasharray:none"
     inkscape:connector-curvature="0"
     id="path144"
     d="m 415.0601,176.9986 c 10.65191,1.15776 21.34153,2.24497 30.37083,1.70775"
     class="125c1834-4980-4801-b6a8-13b34d4522d5" />
  <path
     style="fill:#ffffff;stroke-width:2;stroke-miterlimit:10;stroke-dasharray:none"
     inkscape:connector-curvature="0"
     id="path146"
     d="m 416.43317,172.90218 c 6.68778,-0.14461 15.36264,0.34197 22.0416,0.19265"
     class="224548b8-7d81-4cc0-b13a-140afd493e83" />
  <path
     style="fill:none;stroke:#b2b2ff;stroke-width:2;stroke-miterlimit:10;stroke-dasharray:none"
     inkscape:connector-curvature="0"
     id="path148"
     d="m 416.43317,172.90218 c 6.68778,-0.14461 15.36264,0.34197 22.0416,0.19265"
     class="125c1834-4980-4801-b6a8-13b34d4522d5" />
  <path
     style="fill:#ffffff;stroke-width:2;stroke-miterlimit:10;stroke-dasharray:none"
     inkscape:connector-curvature="0"
     id="path150"
     d="m 416.1695,167.13723 c 5.98771,1.90771 17.0041,2.00168 24.02869,0.82385"
     class="224548b8-7d81-4cc0-b13a-140afd493e83" />
  <path
     style="fill:none;stroke:#b2b2ff;stroke-width:2;stroke-miterlimit:10;stroke-dasharray:none"
     inkscape:connector-curvature="0"
     id="path152"
     d="m 416.1695,167.13723 c 5.98771,1.90771 17.0041,2.00168 24.02869,0.82385"
     class="125c1834-4980-4801-b6a8-13b34d4522d5" />
  <path
     style="fill:#ffffff;stroke-width:2;stroke-miterlimit:10;stroke-dasharray:none"
     inkscape:connector-curvature="0"
     id="path154"
     d="m 423.88945,163.9159 a 226.75,226.75 0 0 1 26.34664,0.47533"
     class="224548b8-7d81-4cc0-b13a-140afd493e83" />
  <path
     style="fill:none;stroke:#b2b2ff;stroke-width:2;stroke-miterlimit:10;stroke-dasharray:none"
     inkscape:connector-curvature="0"
     id="path156"
     d="m 423.88945,163.9159 a 226.75,226.75 0 0 1 26.34664,0.47533"
     class="125c1834-4980-4801-b6a8-13b34d4522d5" />
  <path
     style="fill:#ffffff;stroke-width:2;stroke-miterlimit:10;stroke-dasharray:none"
     inkscape:connector-curvature="0"
     id="path158"
     d="m 419.88411,162.6482 c 9.3614,-1.56163 20.38661,-1.46294 31.35419,-1.38372"
     class="224548b8-7d81-4cc0-b13a-140afd493e83" />
  <path
     style="fill:none;stroke:#b2b2ff;stroke-width:2;stroke-miterlimit:10;stroke-dasharray:none"
     inkscape:connector-curvature="0"
     id="path160"
     d="m 419.88411,162.6482 c 9.3614,-1.56163 20.38661,-1.46294 31.35419,-1.38372"
     class="125c1834-4980-4801-b6a8-13b34d4522d5" />
  <path
     style="fill:#ffffff;stroke-width:2;stroke-miterlimit:10;stroke-dasharray:none"
     inkscape:connector-curvature="0"
     id="path162"
     d="m 420.29755,154.85269 c 8.67486,0.48658 15.34911,0.34608 24.02869,0.82384"
     class="224548b8-7d81-4cc0-b13a-140afd493e83" />
  <path
     style="fill:none;stroke:#b2b2ff;stroke-width:2;stroke-miterlimit:10;stroke-dasharray:none"
     inkscape:connector-curvature="0"
     id="path164"
     d="m 420.29755,154.85269 c 8.67486,0.48658 15.34911,0.34608 24.02869,0.82384"
     class="125c1834-4980-4801-b6a8-13b34d4522d5" />
  <path
     style="fill:#ffffff;stroke-width:2;stroke-miterlimit:10;stroke-dasharray:none"
     inkscape:connector-curvature="0"
     id="path166"
     d="M 448.59996,162.70035 A 96.5,96.5 0 0 1 427.39467,146.89903"
     class="224548b8-7d81-4cc0-b13a-140afd493e83" />
  <path
     style="fill:none;stroke:#b2b2ff;stroke-width:2;stroke-miterlimit:10;stroke-dasharray:none"
     inkscape:connector-curvature="0"
     id="path168"
     d="M 448.59996,162.70035 A 96.5,96.5 0 0 1 427.39467,146.89903"
     class="125c1834-4980-4801-b6a8-13b34d4522d5" />
  <path
     style="fill:#ffffff;stroke-width:2;stroke-miterlimit:10;stroke-dasharray:none"
     inkscape:connector-curvature="0"
     id="path170"
     d="M 453.62392,160.89543 A 219.14,219.14 45 0 1 432.05127,146.09966"
     class="224548b8-7d81-4cc0-b13a-140afd493e83" />
  <path
     style="fill:none;stroke:#b2b2ff;stroke-width:2;stroke-miterlimit:10;stroke-dasharray:none"
     inkscape:connector-curvature="0"
     id="path172"
     d="M 453.62392,160.89543 A 219.13,219.13 0 0 1 432.05127,146.09966"
     class="125c1834-4980-4801-b6a8-13b34d4522d5" />
  <path
     style="fill:#ffffff;stroke-width:2;stroke-miterlimit:10;stroke-dasharray:none"
     inkscape:connector-curvature="0"
     id="path174"
     d="m 453.37318,155.14874 c -9.29769,-5.21891 -18.58184,-10.44192 -25.54272,-16.04462"
     class="224548b8-7d81-4cc0-b13a-140afd493e83" />
  <path
     style="fill:none;stroke:#b2b2ff;stroke-width:2;stroke-miterlimit:10;stroke-dasharray:none"
     inkscape:connector-curvature="0"
     id="path176"
     d="m 453.37318,155.14874 c -9.29769,-5.21891 -18.58184,-10.44192 -25.54272,-16.04462"
     class="125c1834-4980-4801-b6a8-13b34d4522d5" />
  <path
     style="fill:#ffffff;stroke-width:2;stroke-miterlimit:10;stroke-dasharray:none"
     inkscape:connector-curvature="0"
     id="path178"
     d="m 454.70976,151.07817 c -5.29645,-3.96474 -12.60295,-8.53893 -17.8953,-12.49013"
     class="224548b8-7d81-4cc0-b13a-140afd493e83" />
  <path
     style="fill:none;stroke:#b2b2ff;stroke-width:2;stroke-miterlimit:10;stroke-dasharray:none"
     inkscape:connector-curvature="0"
     id="path180"
     d="m 454.70976,151.07817 c -5.29645,-3.96474 -12.60295,-8.53893 -17.8953,-12.49013"
     class="125c1834-4980-4801-b6a8-13b34d4522d5" />
  <path
     style="fill:#ffffff;stroke-width:2;stroke-miterlimit:10;stroke-dasharray:none"
     inkscape:connector-curvature="0"
     id="path182"
     d="m 458.45676,146.54975 c -5.99243,-1.89889 -14.92685,-8.13688 -19.89593,-13.11721"
     class="224548b8-7d81-4cc0-b13a-140afd493e83" />
  <path
     style="fill:none;stroke:#b2b2ff;stroke-width:2;stroke-miterlimit:10;stroke-dasharray:none"
     inkscape:connector-curvature="0"
     id="path184"
     d="m 458.45676,146.54975 c -5.99243,-1.89889 -14.92685,-8.13688 -19.89593,-13.11721"
     class="125c1834-4980-4801-b6a8-13b34d4522d5" />
  <path
     style="fill:#ffffff;stroke-width:2;stroke-miterlimit:10;stroke-dasharray:none"
     inkscape:connector-curvature="0"
     id="path186"
     d="M 454.18304,139.52593 A 219.05,219.05 0 0 0 432.61038,124.73016"
     class="224548b8-7d81-4cc0-b13a-140afd493e83" />
  <path
     style="fill:none;stroke:#b2b2ff;stroke-width:2;stroke-miterlimit:10;stroke-dasharray:none"
     inkscape:connector-curvature="0"
     id="path188"
     d="M 454.18304,139.52593 A 219.05,219.05 0 0 0 432.61038,124.73016"
     class="125c1834-4980-4801-b6a8-13b34d4522d5" />
  <path
     style="fill:#ffffff;stroke-width:2;stroke-miterlimit:10;stroke-dasharray:none"
     inkscape:connector-curvature="0"
     id="path190"
     d="M 458.17955,140.78891 C 451.52903,134.13884 442.61163,127.93263 433.669,121.66757"
     class="224548b8-7d81-4cc0-b13a-140afd493e83" />
  <path
     style="fill:none;stroke:#b2b2ff;stroke-width:2;stroke-miterlimit:10;stroke-dasharray:none"
     inkscape:connector-curvature="0"
     id="path192"
     d="M 458.17955,140.78891 C 451.52903,134.13884 442.61163,127.93263 433.669,121.66757"
     class="125c1834-4980-4801-b6a8-13b34d4522d5" />
  <path
     style="fill:#ffffff;stroke-width:2;stroke-miterlimit:10;stroke-dasharray:none"
     inkscape:connector-curvature="0"
     id="path194"
     d="m 462.5848,134.2652 c -7.30178,-4.583 -12.60295,-8.53892 -19.89121,-13.12603"
     class="224548b8-7d81-4cc0-b13a-140afd493e83" />
  <path
     style="fill:none;stroke:#b2b2ff;stroke-width:2;stroke-miterlimit:10;stroke-dasharray:none"
     inkscape:connector-curvature="0"
     id="path196"
     d="m 462.5848,134.2652 c -7.30178,-4.583 -12.60295,-8.53892 -19.89121,-13.12603"
     class="125c1834-4980-4801-b6a8-13b34d4522d5" />
  <path
     style="fill:#ffffff;stroke-width:2;stroke-miterlimit:10;stroke-dasharray:none"
     inkscape:connector-curvature="0"
     id="path198"
     d="m 426.6356,155.72306 a 99.62,99.62 0 0 0 26.73758,-0.57432"
     class="224548b8-7d81-4cc0-b13a-140afd493e83" />
  <path
     style="fill:none;stroke:#b2b2ff;stroke-width:2;stroke-miterlimit:10;stroke-dasharray:none"
     inkscape:connector-curvature="0"
     id="path200"
     d="m 426.6356,155.72306 a 99.62,99.62 0 0 0 26.73758,-0.57432"
     class="125c1834-4980-4801-b6a8-13b34d4522d5" />
  <path
     style="fill:#ffffff;stroke-width:2;stroke-miterlimit:10;stroke-dasharray:none"
     inkscape:connector-curvature="0"
     id="path202"
     d="m 423.64478,151.36921 a 225.63,225.63 45 0 0 26.37904,0.43594"
     class="224548b8-7d81-4cc0-b13a-140afd493e83" />
  <path
     style="fill:none;stroke:#b2b2ff;stroke-width:2;stroke-miterlimit:10;stroke-dasharray:none"
     inkscape:connector-curvature="0"
     id="path204"
     d="m 423.64478,151.36921 a 225.62,225.62 0 0 0 26.37904,0.43594"
     class="125c1834-4980-4801-b6a8-13b34d4522d5" />
  <path
     style="fill:#ffffff;stroke-width:2;stroke-miterlimit:10;stroke-dasharray:none"
     inkscape:connector-curvature="0"
     id="path206"
     d="m 427.39467,146.89903 c 10.65191,1.15776 21.34153,2.24497 30.3573,1.71186"
     class="224548b8-7d81-4cc0-b13a-140afd493e83" />
  <path
     style="fill:none;stroke:#b2b2ff;stroke-width:2;stroke-miterlimit:10;stroke-dasharray:none"
     inkscape:connector-curvature="0"
     id="path208"
     d="m 427.39467,146.89903 c 10.65191,1.15776 21.34153,2.24497 30.3573,1.71186"
     class="125c1834-4980-4801-b6a8-13b34d4522d5" />
  <path
     style="fill:#ffffff;stroke-width:2;stroke-miterlimit:10;stroke-dasharray:none"
     inkscape:connector-curvature="0"
     id="path210"
     d="m 428.77246,142.79379 c 6.67896,-0.14932 15.35382,0.33726 22.03278,0.18794"
     class="224548b8-7d81-4cc0-b13a-140afd493e83" />
  <path
     style="fill:none;stroke:#b2b2ff;stroke-width:2;stroke-miterlimit:10;stroke-dasharray:none"
     inkscape:connector-curvature="0"
     id="path212"
     d="m 428.77246,142.79379 c 6.67896,-0.14932 15.35382,0.33726 22.03278,0.18794"
     class="125c1834-4980-4801-b6a8-13b34d4522d5" />
  <path
     style="fill:#ffffff;stroke-width:2;stroke-miterlimit:10;stroke-dasharray:none"
     inkscape:connector-curvature="0"
     id="path214"
     d="m 428.48993,137.06412 c 5.99242,1.89889 17.00882,1.99286 24.02869,0.82385"
     class="224548b8-7d81-4cc0-b13a-140afd493e83" />
  <path
     style="fill:none;stroke:#b2b2ff;stroke-width:2;stroke-miterlimit:10;stroke-dasharray:none"
     inkscape:connector-curvature="0"
     id="path216"
     d="m 428.48993,137.06412 c 5.99242,1.89889 17.00882,1.99286 24.02869,0.82385"
     class="125c1834-4980-4801-b6a8-13b34d4522d5" />
  <path
     style="fill:#ffffff;stroke-width:2;stroke-miterlimit:10;stroke-dasharray:none"
     inkscape:connector-curvature="0"
     id="path218"
     d="m 436.21048,133.82044 a 224.81,224.81 45 0 1 26.35547,0.48004"
     class="224548b8-7d81-4cc0-b13a-140afd493e83" />
  <path
     style="fill:none;stroke:#b2b2ff;stroke-width:2;stroke-miterlimit:10;stroke-dasharray:none"
     inkscape:connector-curvature="0"
     id="path220"
     d="m 436.21048,133.82044 a 224.81,224.81 45 0 1 26.35547,0.48004"
     class="125c1834-4980-4801-b6a8-13b34d4522d5" />
  <path
     style="fill:#ffffff;stroke-width:2;stroke-miterlimit:10;stroke-dasharray:none"
     inkscape:connector-curvature="0"
     id="path222"
     d="m 432.21868,132.54863 c 9.35668,-1.55281 20.3819,-1.45412 31.35419,-1.38372"
     class="224548b8-7d81-4cc0-b13a-140afd493e83" />
  <path
     style="fill:none;stroke:#b2b2ff;stroke-width:2;stroke-miterlimit:10;stroke-dasharray:none"
     inkscape:connector-curvature="0"
     id="path224"
     d="m 432.21868,132.54863 c 9.35668,-1.55281 20.3819,-1.45412 31.35419,-1.38372"
     class="125c1834-4980-4801-b6a8-13b34d4522d5" />
  <path
     style="fill:#ffffff;stroke-width:2;stroke-miterlimit:10;stroke-dasharray:none"
     inkscape:connector-curvature="0"
     id="path226"
     d="m 432.63683,124.7443 c 8.68369,0.49129 15.34911,0.34608 24.03751,0.82855"
     class="224548b8-7d81-4cc0-b13a-140afd493e83" />
  <path
     style="fill:none;stroke:#b2b2ff;stroke-width:2;stroke-miterlimit:10;stroke-dasharray:none"
     inkscape:connector-curvature="0"
     id="path228"
     d="m 432.63683,124.7443 c 8.68369,0.49129 15.34911,0.34608 24.03751,0.82855"
     class="125c1834-4980-4801-b6a8-13b34d4522d5" />
  <path
     style="fill:#ffffff;stroke-width:2;stroke-miterlimit:10;stroke-dasharray:none"
     inkscape:connector-curvature="0"
     id="path230"
     d="M 458.593,132.9934 A 96.81,96.81 0 0 1 437.37889,117.18736"
     class="224548b8-7d81-4cc0-b13a-140afd493e83" />
  <path
     style="fill:none;stroke:#b2b2ff;stroke-width:2;stroke-miterlimit:10;stroke-dasharray:none"
     inkscape:connector-curvature="0"
     id="path232"
     d="M 458.593,132.9934 A 96.81,96.81 0 0 1 437.37889,117.18736"
     class="125c1834-4980-4801-b6a8-13b34d4522d5" />
  <path
     style="fill:#ffffff;stroke-width:2;stroke-miterlimit:10;stroke-dasharray:none"
     inkscape:connector-curvature="0"
     id="path234"
     d="M 463.61697,131.18848 A 219,219 0 0 1 442.04431,116.39271"
     class="224548b8-7d81-4cc0-b13a-140afd493e83" />
  <path
     style="fill:none;stroke:#b2b2ff;stroke-width:2;stroke-miterlimit:10;stroke-dasharray:none"
     inkscape:connector-curvature="0"
     id="path236"
     d="M 463.61697,131.18848 A 219,219 0 0 1 442.04431,116.39271"
     class="125c1834-4980-4801-b6a8-13b34d4522d5" />
  <path
     style="fill:#ffffff;stroke-width:2;stroke-miterlimit:10;stroke-dasharray:none"
     inkscape:connector-curvature="0"
     id="path238"
     d="m 463.34858,125.43235 c -9.29297,-5.22772 -18.59066,-10.44663 -25.538,-16.05343"
     class="224548b8-7d81-4cc0-b13a-140afd493e83" />
  <path
     style="fill:none;stroke:#b2b2ff;stroke-width:2;stroke-miterlimit:10;stroke-dasharray:none"
     inkscape:connector-curvature="0"
     id="path240"
     d="m 463.34858,125.43235 c -9.29297,-5.22772 -18.59066,-10.44663 -25.538,-16.05343"
     class="125c1834-4980-4801-b6a8-13b34d4522d5" />
  <path
     style="fill:#ffffff;stroke-width:2;stroke-miterlimit:10;stroke-dasharray:none"
     inkscape:connector-curvature="0"
     id="path242"
     d="m 464.74523,121.29183 c -5.29646,-3.96473 -12.60296,-8.53892 -17.89531,-12.49012"
     class="224548b8-7d81-4cc0-b13a-140afd493e83" />
  <path
     style="fill:none;stroke:#b2b2ff;stroke-width:2;stroke-miterlimit:10;stroke-dasharray:none"
     inkscape:connector-curvature="0"
     id="path244"
     d="m 464.74523,121.29183 c -5.29646,-3.96473 -12.60296,-8.53892 -17.89531,-12.49012"
     class="125c1834-4980-4801-b6a8-13b34d4522d5" />
  <path
     style="fill:#ffffff;stroke-width:2;stroke-miterlimit:10;stroke-dasharray:none"
     inkscape:connector-curvature="0"
     id="path246"
     d="m 468.44098,116.83808 c -5.98771,-1.90771 -14.92685,-8.13688 -19.89121,-13.12603"
     class="224548b8-7d81-4cc0-b13a-140afd493e83" />
  <path
     style="fill:none;stroke:#b2b2ff;stroke-width:2;stroke-miterlimit:10;stroke-dasharray:none"
     inkscape:connector-curvature="0"
     id="path248"
     d="m 468.44098,116.83808 c -5.98771,-1.90771 -14.92685,-8.13688 -19.89121,-13.12603"
     class="125c1834-4980-4801-b6a8-13b34d4522d5" />
  <path
     style="fill:#ffffff;stroke-width:2;stroke-miterlimit:10;stroke-dasharray:none"
     inkscape:connector-curvature="0"
     id="path250"
     d="M 464.17608,109.81897 A 219,219 0 0 0 442.60342,95.023199"
     class="224548b8-7d81-4cc0-b13a-140afd493e83" />
  <path
     style="fill:none;stroke:#b2b2ff;stroke-width:2;stroke-miterlimit:10;stroke-dasharray:none"
     inkscape:connector-curvature="0"
     id="path252"
     d="M 464.17608,109.81897 A 219,219 0 0 0 442.60342,95.023199"
     class="125c1834-4980-4801-b6a8-13b34d4522d5" />
  <path
     style="fill:#ffffff;stroke-width:2;stroke-miterlimit:10;stroke-dasharray:none"
     inkscape:connector-curvature="0"
     id="path254"
     d="M 468.1726,111.08195 C 461.52678,104.42307 452.60468,98.225674 443.66204,91.960615"
     class="224548b8-7d81-4cc0-b13a-140afd493e83" />
  <path
     style="fill:none;stroke:#b2b2ff;stroke-width:2;stroke-miterlimit:10;stroke-dasharray:none"
     inkscape:connector-curvature="0"
     id="path256"
     d="M 468.1726,111.08195 C 461.52678,104.42307 452.60468,98.225674 443.66204,91.960615"
     class="125c1834-4980-4801-b6a8-13b34d4522d5" />
  <path
     style="fill:#ffffff;stroke-width:2;stroke-miterlimit:10;stroke-dasharray:none"
     inkscape:connector-curvature="0"
     id="path258"
     d="M 472.57374,104.54471 C 465.28077,99.966422 459.9796,96.010504 452.67781,91.427501"
     class="224548b8-7d81-4cc0-b13a-140afd493e83" />
  <path
     style="fill:none;stroke:#b2b2ff;stroke-width:2;stroke-miterlimit:10;stroke-dasharray:none"
     inkscape:connector-curvature="0"
     id="path260"
     d="M 472.57374,104.54471 C 465.28077,99.966422 459.9796,96.010504 452.67781,91.427501"
     class="125c1834-4980-4801-b6a8-13b34d4522d5" />
  <path
     style="fill:#ffffff;stroke-width:2;stroke-miterlimit:10;stroke-dasharray:none"
     inkscape:connector-curvature="0"
     id="path262"
     d="m 436.62864,126.0161 a 100.06,100.06 0 0 0 26.71994,-0.58375"
     class="224548b8-7d81-4cc0-b13a-140afd493e83" />
  <path
     style="fill:none;stroke:#b2b2ff;stroke-width:2;stroke-miterlimit:10;stroke-dasharray:none"
     inkscape:connector-curvature="0"
     id="path264"
     d="m 436.62864,126.0161 a 100.06,100.06 0 0 0 26.71994,-0.58375"
     class="125c1834-4980-4801-b6a8-13b34d4522d5" />
  <path
     style="fill:#ffffff;stroke-width:2;stroke-miterlimit:10;stroke-dasharray:none"
     inkscape:connector-curvature="0"
     id="path266"
     d="m 433.65957,121.68521 a 227.28,227.28 0 0 0 26.35546,0.48004"
     class="224548b8-7d81-4cc0-b13a-140afd493e83" />
  <path
     style="fill:none;stroke:#b2b2ff;stroke-width:2;stroke-miterlimit:10;stroke-dasharray:none"
     inkscape:connector-curvature="0"
     id="path268"
     d="m 433.65957,121.68521 a 227.29,227.29 0 0 0 26.35546,0.48004"
     class="125c1834-4980-4801-b6a8-13b34d4522d5" />
  <path
     style="fill:#b2b2ff;fill-rule:evenodd"
     inkscape:connector-curvature="0"
     id="path270"
     d="m 192.83087,576.61708 71.88245,27.54606 a 25.09,25.09 0 0 1 10.80747,16.65026 c 2.05612,11.57596 -6.54135,38.3324 -29.33943,67.09143 0,0 -41.70062,-7.8767 -80.96908,-33.28713 -39.26847,-25.41042 -120.061781,-62.5268 -120.061781,-62.5268 0,0 22.581393,-73.24337 82.497691,-116.44039 0,0 12.66106,69.20959 56.95,96.06744 44.28894,26.85785 8.23268,4.89913 8.23268,4.89913 z"
     class="2a96cb11-280f-4411-88c7-401d31b35c23" />
  <path
     style="fill:none;stroke:#ffffff;stroke-linecap:round;stroke-linejoin:round"
     inkscape:connector-curvature="0"
     id="path272"
     d="m 192.83087,576.61708 71.88245,27.54606 a 25.09,25.09 0 0 1 10.80747,16.65026 c 2.05612,11.57596 -6.54135,38.3324 -29.33943,67.09143 0,0 -41.70062,-7.8767 -80.96908,-33.28713 -39.26847,-25.41042 -120.061781,-62.5268 -120.061781,-62.5268 0,0 22.581393,-73.24337 82.497691,-116.44039 0,0 12.66106,69.20959 56.95,96.06744 44.28894,26.85785 8.23268,4.89913 8.23268,4.89913 z"
     class="2027c739-e152-42b9-b37e-338924210b82" />
  <path
     style="fill:#b2b2ff;stroke:#b2b2ff;stroke-width:0.5px;stroke-linecap:round;stroke-linejoin:round;stroke-opacity:1;fill-opacity:1"
     inkscape:connector-curvature="0"
     id="path274"
     d="m 192.83087,576.61708 71.88245,27.54606 a 25.09,25.09 0 0 1 10.80747,16.65026 c 2.05612,11.57596 -6.54135,38.3324 -29.33943,67.09143 0,0 -41.70062,-7.8767 -80.96908,-33.28713 -39.26847,-25.41042 -120.061781,-62.5268 -120.061781,-62.5268 0,0 22.581393,-73.24337 82.497691,-116.44039 0,0 12.66106,69.20959 56.95,96.06744 44.28894,26.85785 8.23268,4.89913 8.23268,4.89913 z"
     class="d03545be-fad1-462f-a8fe-bbd2fa5cc94d" />
  <path
     style="fill:#ffffff;fill-rule:evenodd"
     inkscape:connector-curvature="0"
     id="path276"
     d="m 51.427115,588.64239 c 0,0 28.75309,-74.4802 71.504265,-100.11492 0,0 10.26204,25.35037 6.09522,32.97664 -4.44722,8.06603 -15.09381,-1.67232 -19.00623,12.22419 -3.91243,13.8965 -5.81239,23.05187 -15.617336,35.81722 -9.804949,12.76536 -13.390915,6.93685 -17.949132,15.46513 -4.558216,8.52828 0.191899,14.979 0.191899,14.979 z"
     class="27e0e969-fe3b-49fc-bfc7-b47e2e3bc444" />
</svg>
